# xmcd CD database file
#
# Track frame offsets:
#	150
#	17897
#	31837
#	44947
#	63937
#	80835
#	91837
#	109350
#	121710
#	142330
#	155710
#	166012
#	194025
#
# Disc length: 2851 seconds
#
# Revision: 0
# Processed by: cddbd v1.5.2PL0 Copyright (c) Steve Scherf et al.
# Submitted via: CDex 1.40Release
#
DISCID=ba0b210d
DTITLE=Bluesaholics - 2 - Mundart
DYEAR=1997
DGENRE=Blues
TTITLE0=Träne i mim Härz
TTITLE1=Stau
TTITLE2=Säg werom
TTITLE3=Hesch mi nömm
TTITLE4=Förigi Flöckli
TTITLE5=Oh jeh minee
TTITLE6=Gib nid uf
TTITLE7=Bliib doch bii mer
TTITLE8=Storm
TTITLE9=Natel D
TTITLE10=I bruuch di
TTITLE11=Langi einsami Nächt
TTITLE12=Einisch isch alles verbii
EXTD=YEAR: 1997 ID3G: 0
EXTT0=
EXTT1=
EXTT2=
EXTT3=
EXTT4=
EXTT5=
EXTT6=
EXTT7=
EXTT8=
EXTT9=
EXTT10=
EXTT11=
EXTT12=
PLAYORDER=
